<svg preserveAspectRatio="none" width="100%" height="100%" overflow="visible" style="display: block;" viewBox="0 0 48 20" fill="none" xmlns="http://www.w3.org/2000/svg">
<g id="Frame 2147226040">
<g clip-path="url(#clip0_0_624)">
<path id="Star 11" d="M46 -47L46.4937 0.893375L52.1628 -46.6659L47.4755 1.00014L58.2533 -45.6674L48.4399 1.21243L64.2002 -44.0162L49.3757 1.52773L69.9337 -41.7318L50.2719 1.94237L75.3866 -38.8409L51.118 2.45148L80.4949 -35.3773L51.9042 3.04908L85.1989 -31.3817L52.6211 3.72818L89.4432 -26.901L53.2604 4.48081L93.1783 -21.9877L53.8145 5.29815L96.3602 -16.6993L54.2771 6.17061L98.9517 -11.0979L54.6426 7.08797L100.922 -5.24911L54.9068 8.03947L102.249 0.778427L55.0665 9.01395L102.916 6.91408L55.12 10L102.916 13.0859L55.0665 10.986L102.249 19.2216L54.9068 11.9605L100.922 25.2491L54.6426 12.912L98.9517 31.0979L54.2771 13.8294L96.3602 36.6993L53.8145 14.7019L93.1783 41.9877L53.2604 15.5192L89.4432 46.901L52.6211 16.2718L85.1989 51.3817L51.9042 16.9509L80.4949 55.3773L51.118 17.5485L75.3866 58.8409L50.2719 18.0576L69.9337 61.7318L49.3757 18.4723L64.2002 64.0162L48.4399 18.7876L58.2533 65.6674L47.4755 18.9999L52.1628 66.6659L46.4937 19.1066L46 67L45.5063 19.1066L39.8372 66.6659L44.5245 18.9999L33.7467 65.6674L43.5601 18.7876L27.7998 64.0162L42.6243 18.4723L22.0663 61.7318L41.7281 18.0576L16.6134 58.8409L40.882 17.5485L11.5051 55.3773L40.0958 16.9509L6.80113 51.3817L39.3789 16.2718L2.55676 46.901L38.7396 15.5192L-1.17827 41.9877L38.1855 14.7019L-4.36019 36.6993L37.7229 13.8294L-6.95167 31.0979L37.3574 12.912L-8.92235 25.2491L37.0932 11.9605L-10.2491 19.2216L36.9335 10.986L-10.9164 13.0859L36.88 10L-10.9164 6.91408L36.9335 9.01395L-10.2491 0.778427L37.0932 8.03947L-8.92235 -5.24911L37.3574 7.08797L-6.95167 -11.0979L37.7229 6.17061L-4.36019 -16.6993L38.1855 5.29815L-1.17827 -21.9877L38.7396 4.48081L2.55676 -26.901L39.3789 3.72818L6.80113 -31.3817L40.0958 3.04908L11.5051 -35.3773L40.882 2.45148L16.6134 -38.8409L41.7281 1.94237L22.0663 -41.7318L42.6243 1.52773L27.7998 -44.0162L43.5601 1.21243L33.7467 -45.6674L44.5245 1.00014L39.8372 -46.6659L45.5063 0.893375L46 -47Z" fill="url(#paint0_linear_0_624)" fill-opacity="0.05"/>
<path id="Star 10" d="M42 7.36621L42.4546 9.11345C42.6372 9.81498 43.185 10.3628 43.8866 10.5454L45.6338 11L43.8866 11.4546C43.185 11.6372 42.6372 12.185 42.4546 12.8866L42 14.6338L41.5454 12.8866C41.3628 12.185 40.815 11.6372 40.1134 11.4546L38.3662 11L40.1134 10.5454C40.815 10.3628 41.3628 9.81498 41.5454 9.11345L42 7.36621Z" fill="var(--fill-0, white)" fill-opacity="0.22"/>
<path id="Star 12" d="M35.8192 6.36621C35.9467 6.85614 36.3293 7.23873 36.8192 7.36621C36.3293 7.49369 35.9467 7.87629 35.8192 8.36621C35.6918 7.87629 35.3092 7.49369 34.8192 7.36621C35.3092 7.23873 35.6918 6.85614 35.8192 6.36621Z" fill="var(--fill-0, white)" fill-opacity="0.22"/>
</g>
</g>
<defs>
<linearGradient id="paint0_linear_0_624" x1="103" y1="10" x2="-11" y2="10" gradientUnits="userSpaceOnUse">
<stop offset="0.338512" stop-color="white"/>
<stop offset="1" stop-color="white" stop-opacity="0"/>
</linearGradient>
<clipPath id="clip0_0_624">
<path d="M0 0H38C43.5228 0 48 4.47715 48 10V10C48 15.5228 43.5228 20 38 20H0V0Z" fill="white"/>
</clipPath>
</defs>
</svg>
