<svg xmlns="http://www.w3.org/2000/svg" width="16" height="16" viewBox="0 0 16 16" fill="none">
  <!-- Base heart -->
  <svg x="2.4" y="2.5" width="12" height="12" viewBox="0 0 12 12" overflow="visible">
    <path d="M2.89151 0.00489159C3.31262-0.0179716 3.75363 0.0393045 4.15285 0.176877C4.23987 0.206863 4.32556 0.245541 4.41025 0.281648C4.87508 0.479524 5.2617 0.825399 5.51009 1.26562C5.59929 1.42199 5.67199 1.59018 5.73914 1.75704C5.74399 1.74927 5.74909 1.74162 5.75384 1.73382C5.82764 1.61355 6.03394 1.42408 6.14064 1.32218C6.26764 1.20088 6.39299 1.07923 6.52844 0.967309C7.01844 0.56027 7.59284 0.267622 8.20999 0.110648C8.33319 0.0784154 8.45724 0.062419 8.58309 0.0451078C8.66984 0.033173 8.75854 0.0169603 8.84579 0.0108539C8.92469 0.00533195 9.00584 0.00737464 9.08504 0.00722394C9.17874 0.00704644 9.27439 0.0047392 9.36789 0.0110012C9.44089 0.0158887 9.51479 0.0297623 9.58729 0.0399541C9.96944 0.0936804 10.3264 0.194002 10.6617 0.390397C11.1642 0.684639 11.5177 1.09402 11.7555 1.62355C11.8104 1.74579 11.8648 1.87525 11.8984 2.00516C11.9296 2.12618 11.9607 2.25114 11.9782 2.37483C11.9966 2.50397 11.9997 2.63199 12 2.76225C12.0008 3.15636 11.9531 3.46861 11.8392 3.84616C11.6758 4.3877 11.4338 4.84869 11.1061 5.3055C11.0463 5.38885 10.9878 5.47395 10.9242 5.5544C10.4071 6.20835 9.76064 6.74065 9.08554 7.22269C8.87804 7.37084 8.66299 7.50509 8.45084 7.64604C8.34914 7.71359 8.25054 7.78624 8.15009 7.85569C7.78859 8.10564 7.40114 8.36234 7.17224 8.74924C7.07734 8.90479 7.02019 9.08689 6.99989 9.26714C6.99079 9.34799 6.98084 9.43004 6.98339 9.51144C6.99544 9.89384 7.15319 10.2528 7.16964 10.6364C7.18419 10.9767 7.08749 11.3441 6.85199 11.5983C6.61964 11.8458 6.29819 11.9903 5.95899 11.9997C5.89379 12.0016 5.82814 11.9938 5.76349 11.986C5.49474 11.9533 5.28065 11.8539 5.0847 11.6663C4.94617 11.5336 4.8531 11.3751 4.79684 11.1925C4.69786 10.8712 4.73657 10.546 4.82041 10.2268C4.84948 10.1162 4.88513 10.0072 4.91111 9.89579C4.95578 9.70414 4.98115 9.50514 4.97609 9.30814C4.97099 9.10964 4.92789 8.93084 4.85086 8.74894C4.80875 8.64949 4.76106 8.55134 4.70039 8.46179C4.43257 8.06624 3.97373 7.80089 3.56929 7.56499C3.28275 7.39784 2.99314 7.23344 2.71251 7.05644C2.27087 6.77714 1.85815 6.4544 1.48052 6.09305C0.979904 5.61685 0.53278 4.99105 0.278427 4.34527C0.187807 4.10942 0.117712 3.86619 0.0689249 3.61826C0.0363178 3.45137 0.00584359 3.27244 0.00257003 3.10233C0.000201416 2.97928-0.00293165 2.85192 0.00562114 2.72917C0.037748 2.19142 0.221987 1.67389 0.536844 1.23699C0.612299 1.13165 0.686704 1.0274 0.777004 0.933964C1.33103 0.356091 2.09153 0.0219364 2.89151 0.00489159Z" fill="#FE30D1"/>
  </svg>
  <!-- Vector1: white highlight -->
  <svg x="3.175" y="3.016" width="10.565" height="11.028" viewBox="0 0 10.5648 11.0283" overflow="visible">
    <path d="M0.0673462 3.11763C-0.0492287 2.4943-0.0302988 1.88669 0.250571 1.31043C0.310661 1.18715 0.346171 1.10015 0.426456 0.983214C0.545611 0.806489 0.690541 0.64863 0.856411 0.51488C1.15363 0.27883 1.55954 0.113005 1.93078 0.0445501C2.5915-0.0772777 3.18679 0.0498801 3.73784 0.436855C3.96402 0.59568 4.20978 0.852114 4.34776 1.09185C4.39396 1.17218 4.42816 1.25551 4.45891 1.3427C4.50311 1.46802 4.55416 1.66548 4.62866 1.77245C4.67511 1.83918 4.72966 1.87774 4.81316 1.86523C4.94336 1.84574 5.23151 1.5041 5.32816 1.40314C5.38831 1.34035 5.45276 1.28101 5.51596 1.22136C5.63591 1.10931 5.76071 1.00257 5.88991 0.901409C6.16426 0.684019 6.46266 0.499005 6.77931 0.350035C7.64411-0.0474328 8.78465-0.188605 9.6086 0.37987C10.0851 0.70812 10.4124 1.21193 10.5187 1.78108C10.5756 2.09404 10.5786 2.39506 10.5343 2.7089C10.5214 2.80019 10.5166 2.90786 10.4938 2.9966C10.3622 3.51029 10.1223 4.01218 9.82355 4.44669C9.4971 4.9215 9.2233 5.20915 8.77306 5.5565C8.76346 5.568 8.7531 5.57845 8.7421 5.5886C8.62075 5.7001 8.48965 5.8009 8.3597 5.90195C8.2798 5.9641 8.2036 6.0311 8.1218 6.0908C8.06825 6.1299 8.01091 6.16405 7.95591 6.2011C7.93801 6.2132 7.89916 6.2505 7.88046 6.24975C7.91306 6.22055 7.95105 6.1899 7.9869 6.16465C8.04535 6.1235 8.19311 6.0481 8.23016 5.99155C8.22756 5.97095 8.2179 5.9648 8.2064 5.9488C8.25575 5.8895 8.38635 5.76105 8.44605 5.7234L8.45101 5.7285C8.4409 5.74035 8.44095 5.74065 8.44051 5.7563L8.43395 5.75405L8.43631 5.7463L8.4337 5.75205L8.43955 5.75645C8.45305 5.75385 8.46815 5.74925 8.4817 5.75295C8.48361 5.7535 8.48535 5.7545 8.4872 5.7553C8.5954 5.6594 8.70425 5.56425 8.8138 5.4699C8.82625 5.4585 8.8392 5.4474 8.85135 5.43565C8.8554 5.43165 8.85925 5.42745 8.8632 5.4233C8.84705 5.41455 8.84045 5.40755 8.834 5.3898C8.82835 5.3743 8.8283 5.35845 8.83705 5.3441C8.84605 5.32935 8.89645 5.2832 8.8964 5.26865C8.8332 5.31855 8.78325 5.38765 8.7258 5.4443C8.6088 5.5596 8.0593 6.0672 7.9579 6.1127L7.94811 6.1172C7.94596 6.11815 7.94376 6.1191 7.94161 6.12C7.7739 6.2403 7.60601 6.3651 7.44491 6.49405C7.36301 6.5596 7.28616 6.6313 7.20331 6.6957C7.08341 6.7889 6.95681 6.87435 6.83431 6.96415C6.77031 7.0111 6.71236 7.07205 6.64686 7.1153C6.62371 7.2063 6.48361 7.2959 6.40631 7.34155C6.38176 7.35605 6.35841 7.368 6.32976 7.37145C5.94401 7.76385 5.65241 8.1261 5.65931 8.71435C5.66151 8.90235 5.69481 9.09215 5.74046 9.27415C5.84571 9.694 6.07496 10.2146 5.84706 10.6288C5.75881 10.8053 5.58656 10.9406 5.40036 11.0014C5.36651 11.0124 5.31241 11.0301 5.27746 11.0237C5.07476 11.0409 4.86701 11.0121 4.69551 10.8958C4.07875 10.4778 4.57136 9.5803 4.67826 9.0252C4.72536 8.7806 4.72061 8.51445 4.67431 8.2703C4.63876 8.08285 4.57896 7.90545 4.50066 7.73165C4.16747 6.99165 3.53703 6.58155 2.88951 6.1446C2.7279 6.03555 2.57407 5.91545 2.41295 5.8058C2.40936 5.80475 2.40573 5.80385 2.40218 5.8027C2.34979 5.78565 2.19585 5.655 2.14411 5.61535C1.58807 5.189 0.91743 4.51 0.629166 3.86648C0.598156 3.79724 0.557136 3.73003 0.529151 3.6602C0.334791 3.175 0.223616 2.64901 0.280261 2.12621C0.285561 2.07733 0.288901 2.02685 0.298886 1.97875C0.302816 1.95981 0.311181 1.9422 0.314511 1.92328C0.319671 1.89391 0.312756 1.86337 0.323661 1.83497C0.324571 1.83261 0.325556 1.83028 0.326426 1.82791C0.348891 1.76666 0.372116 1.68899 0.376886 1.62405L0.368081 1.62546C0.356491 1.64465 0.350641 1.69101 0.339961 1.70339C0.327076 1.71832 0.320441 1.70347 0.313456 1.73125C0.303696 1.77007 0.305661 1.81404 0.291021 1.85135C0.274236 1.89411 0.241141 1.92596 0.226436 1.97215C0.215856 2.00539 0.217596 2.07774 0.200486 2.10284C0.188886 2.09232 0.187271 2.08539 0.186631 2.07008C0.185051 2.03255 0.197441 1.98811 0.204366 1.95117C0.238456 1.76927 0.286941 1.6296 0.345771 1.4555C0.360426 1.41215 0.390341 1.37302 0.402846 1.32918C0.403836 1.3257 0.406071 1.3205 0.407551 1.31691L0.405396 1.31025C0.341436 1.41429 0.290311 1.56657 0.256791 1.68455C0.242431 1.73508 0.231866 1.78742 0.214056 1.8368C0.197946 1.88145 0.203801 1.93028 0.194906 1.9763C0.190276 2.00026 0.180696 2.0226 0.176776 2.04698C0.158071 2.16333 0.158406 2.28174 0.158521 2.39923C0.158631 2.50932 0.158771 2.62064 0.170046 2.73023C0.210881 3.12715 0.336076 3.52126 0.508561 3.87997C0.772386 4.42859 1.16736 4.90985 1.59359 5.33985C1.69387 5.44105 1.79539 5.5434 1.9025 5.63735L2.24702 5.93435C2.32027 5.9964 2.52767 6.15155 2.57182 6.2269C2.70908 6.34115 2.85224 6.4461 2.99455 6.55375C3.04614 6.5928 3.10253 6.6278 3.15087 6.6707C3.22173 6.712 3.28978 6.7921 3.34876 6.8498C3.27707 6.81115 3.13339 6.73825 3.07436 6.6934C3.02259 6.6533 2.94732 6.6122 2.89382 6.5711C2.74486 6.45845 2.59261 6.34985 2.44241 6.239C1.49803 5.5421 0.530711 4.62805 0.159646 3.47977C0.153521 3.4533 0.143711 3.42331 0.135811 3.39711C0.108051 3.30507 0.0925412 3.21027 0.0673462 3.11763Z" fill="#FEFCFE"/>
  </svg>
  <!-- Vector2: small pink detail -->
  <svg x="8.094" y="11.117" width="0.9" height="2.853" viewBox="0 0 0.900051 2.85186" overflow="visible">
    <path d="M0.326026 0.59255C0.375426 0.36715 0.388426 0.28535 0.519776 0.0871C0.535926 0.06275 0.558426 0.01735 0.580626 0C0.592526 0.02085 0.595476 0.0321996 0.589476 0.0558996C0.579476 0.0953495 0.545176 0.1539 0.563976 0.19165L0.570326 0.1896C0.571326 0.18605 0.572276 0.1825 0.573376 0.17895C0.582526 0.14945 0.614676 0.0923 0.640976 0.0766C0.642876 0.07545 0.645026 0.0747496 0.647026 0.0738496L0.654326 0.0775003C0.643676 0.15715 0.607826 0.2312 0.598176 0.3119C0.590376 0.3768 0.585276 0.4409 0.584676 0.5063C0.584276 0.550699 0.589026 0.600449 0.583076 0.644149C0.602576 0.963449 0.694226 1.2775 0.779826 1.58445C0.827176 1.7543 0.886326 1.93835 0.898076 2.11495C0.906326 2.23935 0.889276 2.35675 0.836676 2.4698C0.758876 2.62045 0.675076 2.7381 0.521376 2.8172C0.367676 2.89635 0.457376 2.8152 0.457376 2.8152C0.457376 2.8152 0.304976 2.80925 0.232626 2.8212C0.220126 2.82065 0.195326 2.823 0.195326 2.823C0.175776 2.82625 0.167677 2.8267 0.149277 2.81895C0.149277 2.81895 0.155476 2.8155 0.158576 2.8137C0.191676 2.7943 0.205826 2.76595 0.213726 2.7288C0.227476 2.664 0.152276 2.4789 0.152276 2.4789C0.152276 2.4789 0.0902766 2.4046 0.0702266 2.34345C0.0853766 2.3289 0.0959764 2.3118 0.105526 2.29305C0.133376 2.23815 0.0606766 2.1119 0.0417766 2.05365C0.0228266 1.9954 0.0401764 2.05015 0.0401764 2.05015C-0.0869735 1.6601 0.113777 1.0964 0.279176 0.735099C0.296826 0.687999 0.311876 0.6408 0.326026 0.59255Z" fill="#FE30D1"/>
  </svg>
  <!-- Vector3: small gradient detail -->
  <svg x="8.418" y="12.549" width="0.473" height="1.105" viewBox="0 0 0.473084 1.10517" overflow="visible">
    <defs>
      <linearGradient id="grad3" x1="0.08305" y1="0.590049" x2="0.4753" y2="0.660449" gradientUnits="userSpaceOnUse">
        <stop stop-color="#FEE8FF"/><stop offset="1" stop-color="white"/>
      </linearGradient>
    </defs>
    <path d="M0.3035 0.1018C0.30745 0.0692499 0.3003 0.0379001 0.3085 0.00570011L0.32665 0C0.3329 0.03465 0.33885 0.0694499 0.3464 0.1039C0.4019 0.3397 0.5551 0.7137 0.4168 0.9412C0.36475 1.02685 0.2655 1.07415 0.17065 1.09585C0.116 1.1084 0.0679 1.10685 0.0123501 1.0996L0 1.0877L0.000699996 1.0775L0.0180001 1.06755C0.0453001 1.04585 0.0722999 1.0227 0.0965499 0.997649C0.30675 0.78105 0.3127 0.54165 0.3085 0.2586C0.305 0.23645 0.30455 0.21395 0.30355 0.1916L0.3035 0.1018Z" fill="url(#grad3)"/>
  </svg>
  <!-- Vector4: pink inner heart -->
  <svg x="3.905" y="3.52" width="8.975" height="6.848" viewBox="0 0 8.97476 6.84816" overflow="visible">
    <path d="M0.653824 3.50377C0.21267 2.87877-0.10231 2.22552 0.0308099 1.43948C0.107185 0.988481 0.399785 0.562761 0.771554 0.302816C1.13246 0.0504766 1.63453-0.0530184 2.06666 0.0260216C2.43154 0.0927565 2.77469 0.265276 2.9884 0.578986C3.14484 0.808621 3.19546 1.07925 3.20442 1.35259C3.21409 1.64795 3.11822 2.12029 3.29913 2.36382C3.33774 2.41579 3.39088 2.45278 3.44704 2.48352C3.49372 2.50907 3.54457 2.5328 3.59702 2.54343C3.71572 2.56749 3.82777 2.52178 3.92467 2.45594C4.01127 2.39709 4.06542 2.31838 4.13077 2.23883C4.19907 2.15679 4.26612 2.07372 4.33192 1.98965C4.39152 1.91277 4.44912 1.83228 4.51387 1.75975C4.71722 1.53214 4.93602 1.32754 5.16642 1.12767C5.21937 1.08169 5.26897 1.03183 5.32192 0.985836C5.41192 0.907726 5.50881 0.834156 5.60571 0.764801C6.16836 0.361886 6.92626 0.0448715 7.62996 0.178301C8.03916 0.255901 8.41636 0.486676 8.65171 0.834206C8.96956 1.30353 9.03386 1.89805 8.92696 2.44489C8.88456 2.66174 8.81406 2.87363 8.73376 3.07905C8.40541 3.91924 7.87486 4.58926 7.23171 5.21046C7.06071 5.37566 6.88556 5.53901 6.70316 5.69156C6.41231 5.93476 6.10056 6.15736 5.79391 6.37981C5.67611 6.46531 5.56226 6.55376 5.44876 6.64491C5.38951 6.69251 5.32826 6.75116 5.26471 6.79206C5.26197 6.79381 5.25896 6.79506 5.25611 6.79661C5.21861 6.80506 5.20042 6.83576 5.16697 6.84676L5.16406 6.83001L5.16807 6.84816C5.16112 6.83206 5.16642 6.81351 5.16802 6.79606C5.15667 6.78226 5.15006 6.78316 5.13311 6.77901C5.12406 6.78161 5.11557 6.78351 5.10637 6.78531C5.12687 6.75311 5.30731 6.61811 5.35211 6.57956L5.35032 6.56626C5.38852 6.52621 5.43906 6.49161 5.48281 6.45761C5.57076 6.38886 5.65961 6.32136 5.74936 6.25506C5.95076 6.10671 6.15021 5.95576 6.34766 5.80216C6.63641 5.57851 6.90621 5.33861 7.16936 5.08566C7.34291 4.91886 7.51506 4.75346 7.67411 4.57241C8.16206 4.01681 8.57021 3.3296 8.73121 2.6024C8.85076 2.06239 8.80041 1.45015 8.49696 0.976691C8.28951 0.651616 7.96091 0.422986 7.58421 0.341596C7.06976 0.228761 6.55156 0.350351 6.09341 0.593936C6.01101 0.637751 5.93176 0.689556 5.85251 0.738936C5.43991 0.995981 5.09922 1.29559 4.76807 1.6484C4.68942 1.73214 4.60677 1.81256 4.53222 1.90004C4.32822 2.13947 4.18872 2.4686 3.91937 2.6387C3.80187 2.71425 3.65872 2.73884 3.52277 2.70684C3.40948 2.68134 3.30694 2.62113 3.2294 2.5346C2.93543 2.20861 3.08892 1.69179 3.06732 1.28608C3.05578 1.06935 3.0114 0.864511 2.89438 0.678756C2.72453 0.409156 2.41197 0.234586 2.10708 0.166426C1.68862 0.0757816 1.25133 0.155601 0.891789 0.388261C0.511724 0.633716 0.23878 0.999931 0.155445 1.44605C0.0220749 2.15983 0.28219 2.80083 0.661284 3.38206C0.665099 3.3974 0.66935 3.41293 0.677764 3.42648C0.711569 3.48086 0.758989 3.53134 0.798884 3.58178C0.859439 3.65833 0.917064 3.73704 0.980129 3.8116C0.990849 3.82427 1.0492 3.88252 1.05231 3.89322C1.06268 3.92889 1.0409 3.93228 1.07228 3.96436L1.07731 3.96227L1.0779 3.93632L1.08591 3.935C1.12358 3.97131 1.16212 4.00831 1.19489 4.04921C1.25657 4.12616 1.30228 4.20091 1.37516 4.26951C1.44462 4.33486 1.5365 4.36246 1.60375 4.42576C1.63222 4.45251 1.6495 4.51121 1.68225 4.52801C1.70008 4.54476 1.71189 4.55531 1.73633 4.55946C1.79145 4.56886 1.93699 4.68716 1.98199 4.72986C1.98381 4.74386 1.98584 4.75601 1.99064 4.76936L1.99487 4.78076C1.98845 4.78391 1.98517 4.78581 1.97781 4.78776C1.97371 4.78881 1.95513 4.79011 1.95243 4.78926C1.93632 4.78431 1.80252 4.65176 1.77708 4.62911C1.67129 4.53506 1.56089 4.44531 1.45353 4.35286C1.41278 4.31776 1.37003 4.28616 1.33229 4.24766C1.16604 4.07801 1.00139 3.9066 0.847079 3.72595C0.804824 3.67649 0.702269 3.5284 0.653824 3.50377Z" fill="#FE30D1"/>
  </svg>
  <!-- Vector5: dark gradient inner heart -->
  <svg x="4.183" y="3.807" width="8.347" height="6.676" viewBox="0 0 8.34801 6.676" overflow="visible">
    <defs>
      <linearGradient id="grad5" x1="4.36266" y1="-0.0492997" x2="3.89276" y2="5.21294" gradientUnits="userSpaceOnUse">
        <stop stop-color="#CE0D81"/><stop offset="1" stop-color="#9924A3"/>
      </linearGradient>
    </defs>
    <path d="M0.485635 0.40328C0.518875 0.36137 0.570645 0.32266 0.613855 0.29115C1.05827-0.0329397 1.7489-0.12114 2.22138 0.205505C2.35504 0.29746 2.46132 0.42391 2.52899 0.571435C2.69962 0.938285 2.61433 1.29286 2.61428 1.68196C2.61423 1.99414 2.65745 2.27423 2.93898 2.4648C3.19953 2.64116 3.57841 2.63587 3.82911 2.4414C4.04701 2.2724 4.19396 2.00635 4.36616 1.7929C4.79456 1.26835 5.29231 0.77289 5.89481 0.45314C6.08351 0.353 6.29526 0.254465 6.50666 0.215065L6.51326 0.213895C6.86091 0.129405 7.35121 0.175365 7.65256 0.36827C7.77076 0.443935 7.98796 0.616745 8.04931 0.742605C8.28046 1.02669 8.37336 1.57341 8.34216 1.93539C8.27431 2.72274 7.85421 3.45597 7.36506 4.05884C7.20371 4.25769 7.02666 4.43704 6.84456 4.61639C6.71371 4.74764 6.57856 4.87459 6.43936 4.99699C5.82086 5.53104 5.14496 5.98409 4.53941 6.53213C4.05471 6.99798 3.69691 6.21334 3.49446 5.86594C3.22006 5.39519 2.84261 5.09544 2.40806 4.77674C1.87216 4.38369 1.30264 3.98409 0.86761 3.47362C0.361805 2.88011-0.0788142 2.14507 0.0119308 1.33286C0.0489307 0.997825 0.222195 0.61882 0.485635 0.40328Z" fill="url(#grad5)"/>
  </svg>
  <!-- Vector6: white outline -->
  <svg x="2.53" y="2.622" width="11.741" height="11.772" viewBox="0 0 11.7406 11.7726" overflow="visible">
    <path d="M5.6414 1.79112C5.6484 1.76984 5.6657 1.71348 5.67865 1.69943C5.99965 1.35175 6.33205 1.03653 6.71145 0.751686C8.1963-0.365461 10.7656-0.341898 11.5378 1.61995C12.1672 3.20783 11.2351 4.97588 10.0685 6.04723C9.85915 6.23953 9.66675 6.43023 9.44055 6.60603C9.2163 6.77988 8.98755 6.94783 8.7546 7.10973C8.22315 7.47437 7.5998 7.83583 7.15075 8.30327C6.78305 8.68612 6.67335 9.26852 6.80025 9.77802C6.9216 10.2651 7.02865 10.7333 6.78595 11.2112C6.4071 11.9574 5.1847 11.9681 4.83069 11.1934C4.54686 10.583 4.85596 10.0894 4.94245 9.48727C5.05885 8.64497 4.63792 8.10632 3.98674 7.65848C3.84012 7.55838 3.69013 7.46332 3.53704 7.37348C3.35683 7.27002 3.17261 7.17597 2.99496 7.06783C2.79808 6.94793 2.59961 6.82958 2.40997 6.69818C2.27459 6.60238 2.14201 6.50273 2.01237 6.39928C1.09712 5.68048 0.392029 4.81881 0.108985 3.66702C-0.0922568 2.84811-0.0282055 2.06131 0.413814 1.33174C0.547824 1.10832 0.714619 0.906306 0.908614 0.732501C0.985379 0.662371 1.06562 0.590331 1.15027 0.530151C2.43504-0.383316 4.76632-0.144146 5.3975 1.46457C5.43195 1.55236 5.46715 1.62804 5.4892 1.72073L5.4909 1.72815C5.50395 1.75827 5.5533 1.89604 5.54345 1.92312L5.53695 1.92924C5.51145 1.90998 5.5246 1.88682 5.5062 1.88003C5.4843 1.90219 5.4765 1.91631 5.46005 1.94203C5.42395 1.88537 5.40695 1.84769 5.3851 1.78363C5.3456 1.65285 5.29045 1.53181 5.2325 1.41015C4.9084 0.730121 4.22509 0.304414 3.50034 0.165141C2.91818 0.0532713 2.19052 0.132254 1.65477 0.390511C1.42266 0.502306 1.20781 0.646926 1.01683 0.819936C0.728124 1.08557 0.450844 1.4923 0.322186 1.86397C0.0719654 2.58681 0.0978584 3.18672 0.333522 3.90547C0.647179 4.86207 1.19003 5.51048 1.94248 6.14758C2.26839 6.42653 2.61752 6.67708 2.98608 6.89653C3.90762 7.44093 5.06415 7.90623 5.11125 9.15613C5.1091 9.26752 5.11655 9.38887 5.1017 9.49922C5.02995 10.0319 4.72275 10.5503 4.97305 11.0844C5.191 11.5495 5.7581 11.726 6.2196 11.5111C6.6225 11.3347 6.84205 10.8197 6.765 10.3975C6.64645 9.74792 6.4383 9.11682 6.82565 8.50178C6.92495 8.34408 7.05605 8.17118 7.20015 8.04438C7.80255 7.51428 8.52785 7.14542 9.1571 6.65068C10.1484 5.89268 11.0241 4.98993 11.4156 3.7747C11.6594 3.01778 11.6802 2.18634 11.3051 1.46325C11.0013 0.869876 10.4703 0.425006 9.8333 0.230103C9.5299 0.134941 9.31495 0.119122 9.0005 0.119385C8.746 0.119802 8.45935 0.133193 8.2099 0.197346C7.5555 0.365656 6.92395 0.666031 6.40855 1.10741C6.28325 1.21474 6.16285 1.32279 6.0395 1.42815C5.92065 1.52965 5.77115 1.72336 5.6414 1.79112Z" fill="#FEFCFE"/>
  </svg>
  <!-- Vector7: pink gradient sparkle -->
  <svg x="4.559" y="7.024" width="3.688" height="6.572" viewBox="0 0 3.68783 6.57253" overflow="visible">
    <defs>
      <linearGradient id="grad7" x1="3.59868" y1="3.83883" x2="1.41936" y2="3.93113" gradientUnits="userSpaceOnUse">
        <stop stop-color="#FF45E9"/><stop offset="1" stop-color="#FF96F7"/>
      </linearGradient>
    </defs>
    <path d="M0 0C0.0484399 0.02463 0.151 0.17273 0.19325 0.22219C0.347565 0.402835 0.512209 0.574234 0.678464 0.743884C0.716204 0.782384 0.758959 0.814034 0.799709 0.849084C0.907064 0.941534 1.01746 1.03128 1.12325 1.12533C1.14869 1.14798 1.2825 1.28058 1.2986 1.28553C1.3013 1.28633 1.31988 1.28503 1.32398 1.28398C1.33134 1.28203 1.33462 1.28013 1.34104 1.27698L1.33681 1.26558C1.33201 1.25228 1.32999 1.24008 1.32816 1.22613C1.28317 1.18343 1.13762 1.06508 1.0825 1.05573C1.05806 1.05158 1.04625 1.04103 1.02842 1.02428C1.03906 1.02623 1.04759 1.02828 1.05763 1.03238C1.08123 1.04188 1.10671 1.04393 1.13068 1.05273C1.3159 1.19618 1.49592 1.34678 1.68183 1.48908C2.12697 1.82978 2.50359 2.09428 2.82673 2.56323C2.97613 2.78003 3.09278 3.02533 3.21953 3.25588C3.40053 3.58503 3.58388 3.94598 3.63093 4.32413C3.65373 4.50743 3.64228 4.71048 3.61108 4.89233C3.55108 5.24178 3.35363 5.78418 3.40023 6.11843C3.40753 6.17063 3.42468 6.21443 3.44633 6.26193C3.47353 6.32258 3.53598 6.41128 3.60033 6.43528C3.60208 6.43593 3.60383 6.43648 3.60558 6.43708C3.62563 6.49823 3.69193 6.49903 3.68763 6.57253C3.58078 6.49193 3.35353 6.43453 3.35353 6.43453L3.33088 6.35483L3.20138 6.25123C3.20138 6.25123 3.17758 6.03638 3.20038 5.94438C3.20328 5.91543 3.20593 5.88648 3.20838 5.85748C3.26563 5.61593 3.36363 5.38553 3.42458 5.14478C3.53578 4.69383 3.50373 4.21938 3.33278 3.78753C3.29218 3.68283 3.23953 3.58143 3.18998 3.48068C3.00253 3.09963 2.77729 2.69403 2.49922 2.37238C2.45106 2.31663 2.39593 2.26513 2.34403 2.21288C2.20161 2.06983 2.0537 1.93233 1.90068 1.80073C1.82213 1.73453 1.73956 1.67348 1.66045 1.60803C1.46106 1.44313 1.26945 1.27058 1.07456 1.10063C0.957214 0.998334 0.834549 0.902234 0.719164 0.797534C0.646434 0.731534 0.578654 0.659685 0.509869 0.589535C0.36777 0.44471 0.22848 0.295795 0.10162 0.13725C0.0696999 0.0973499 0.03108 0.0547351 0.00578498 0.0104351C0.00380998 0.0069851 0.00192 0.003485 0 0Z" fill="url(#grad7)"/>
  </svg>
</svg>
