<svg preserveAspectRatio="none" width="100%" height="100%" overflow="visible" style="display: block;" viewBox="0 0 18 13" fill="none" xmlns="http://www.w3.org/2000/svg">
<g id="Vector">
<path d="M3.24347 0.1991L3.24101 0.196253C3.17868 0.133671 3.10479 0.0841304 3.02355 0.0504582C2.94231 0.0167861 2.85531 -0.00035787 2.76753 5.66251e-06C2.67974 0.000369195 2.59289 0.0182331 2.51192 0.052577C2.43095 0.0869208 2.35746 0.137072 2.29564 0.200168C2.23382 0.263264 2.18488 0.338068 2.15162 0.420309C2.11836 0.502551 2.10142 0.59062 2.10178 0.679487C2.10251 0.858962 2.17363 1.0308 2.29951 1.15718L3.30746 2.17755C2.08509 3.02504 1.03294 4.09994 0.206973 5.34507C0.072093 5.54666 0 5.78455 0 6.02804C0 6.27152 0.072093 6.50942 0.206973 6.71101C2.31533 9.86998 5.65769 11.7207 9.00006 11.6975C10.0827 11.7015 11.1581 11.5191 12.1804 11.158L13.812 12.8097C13.9377 12.9329 14.1061 13.0012 14.281 13C14.456 12.9988 14.6235 12.9281 14.7475 12.8033C14.8716 12.6784 14.9423 12.5092 14.9444 12.3322C14.9466 12.1551 14.8801 11.9842 14.7591 11.8563L3.24347 0.1991ZM9.00006 9.86073C8.36681 9.86049 7.74372 9.6996 7.18773 9.39276C6.63174 9.08592 6.16057 8.64291 5.8173 8.10422C5.47402 7.56553 5.26959 6.94834 5.22267 6.30905C5.17575 5.66976 5.28784 5.02877 5.54871 4.44464L6.60166 5.51056C6.51684 5.91515 6.53323 6.33477 6.64933 6.73132C6.76544 7.12786 6.97757 7.48875 7.26647 7.78121C7.55536 8.07367 7.91187 8.28842 8.30358 8.40595C8.6953 8.52348 9.10982 8.54007 9.50948 8.45421L10.5624 9.52014C10.0717 9.7454 9.53891 9.86154 9.00006 9.86073Z" fill="var(--fill-0, white)"/>
<path d="M17.7931 5.34329C15.6848 2.18253 12.3424 0.331851 9.00006 0.354985C7.91741 0.351015 6.84198 0.533465 5.81977 0.89453L7.43698 2.53167C8.13875 2.21018 8.92063 2.11283 9.67843 2.2526C10.4362 2.39236 11.134 2.76261 11.6786 3.31398C12.2233 3.86536 12.589 4.57169 12.7271 5.33882C12.8652 6.10596 12.769 6.89748 12.4514 7.60788L14.6923 9.87639C15.9149 9.02904 16.9672 7.95412 17.7931 6.70888C17.928 6.50732 18 6.26949 18 6.02608C18 5.78267 17.928 5.54485 17.7931 5.34329Z" fill="var(--fill-0, white)"/>
<path d="M9.00006 3.54421C8.82885 3.54423 8.65812 3.56236 8.49064 3.59831L11.3985 6.5416C11.4743 6.17998 11.4694 5.80577 11.384 5.44631C11.2987 5.08686 11.1351 4.75125 10.9053 4.46398C10.6754 4.17671 10.3851 3.94505 10.0554 3.78592C9.72582 3.62679 9.36525 3.54421 9.00006 3.54421Z" fill="var(--fill-0, white)"/>
</g>
</svg>
