<svg preserveAspectRatio="none" width="100%" height="100%" overflow="visible" style="display: block;" viewBox="0 0 10.8 14.4" fill="none" xmlns="http://www.w3.org/2000/svg">
<path id="Vector" d="M9.45 5.4H9V3.6C9 1.6146 7.3854 0 5.4 0C3.4146 0 1.8 1.6146 1.8 3.6V5.4H1.35C0.606 5.4 0 6.0054 0 6.75V13.05C0 13.7946 0.606 14.4 1.35 14.4H9.45C10.194 14.4 10.8 13.7946 10.8 13.05V6.75C10.8 6.0054 10.194 5.4 9.45 5.4ZM3 3.6C3 2.2764 4.0764 1.2 5.4 1.2C6.7236 1.2 7.8 2.2764 7.8 3.6V5.4H3V3.6ZM6 10.0332V11.4C6 11.7312 5.7318 12 5.4 12C5.0682 12 4.8 11.7312 4.8 11.4V10.0332C4.443 9.825 4.2 9.4422 4.2 9C4.2 8.3382 4.7382 7.8 5.4 7.8C6.0618 7.8 6.6 8.3382 6.6 9C6.6 9.4422 6.357 9.825 6 10.0332Z" fill="var(--fill-0, white)"/>
</svg>
