<svg preserveAspectRatio="none" width="100%" height="100%" overflow="visible" style="display: block;" viewBox="0 0 10.8 9.6" fill="none" xmlns="http://www.w3.org/2000/svg">
<path id="camera-Filled" d="M6.53685 5.3647C6.53685 5.58808 6.47018 5.80644 6.34527 5.99218C6.22035 6.17792 6.0428 6.32268 5.83507 6.40817C5.62734 6.49365 5.39876 6.51602 5.17823 6.47245C4.9577 6.42887 4.75513 6.32131 4.59614 6.16336C4.43714 6.00541 4.32887 5.80416 4.285 5.58507C4.24113 5.36599 4.26364 5.1389 4.34969 4.93252C4.43573 4.72614 4.58144 4.54975 4.7684 4.42565C4.95535 4.30154 5.17515 4.2353 5.4 4.2353C5.70124 4.23617 5.98988 4.35544 6.20289 4.56706C6.4159 4.77867 6.53596 5.06543 6.53685 5.3647ZM10.8 4.2353V7.05882C10.799 7.73247 10.5292 8.37824 10.0497 8.85458C9.57021 9.33093 8.92019 9.59899 8.24211 9.6H2.55789C1.87981 9.59899 1.22979 9.33093 0.750318 8.85458C0.270841 8.37824 0.00102187 7.73247 0 7.05882V4.2353C0.000456998 3.58797 0.249488 2.9652 0.696294 2.49403C1.1431 2.02285 1.75401 1.73878 2.40442 1.69976L3.12063 0.626745C3.25109 0.434192 3.4271 0.276366 3.63323 0.167098C3.83936 0.0578302 4.06932 0.000454738 4.30296 0H6.49704C6.73068 0.000454738 6.96064 0.0578302 7.16677 0.167098C7.3729 0.276366 7.54891 0.434192 7.67937 0.626745L8.39558 1.69976C9.04599 1.73878 9.6569 2.02285 10.1037 2.49403C10.5505 2.9652 10.7995 3.58797 10.8 4.2353ZM7.67367 5.3647C7.67367 4.91795 7.54031 4.48123 7.29048 4.10977C7.04064 3.73832 6.68554 3.4488 6.27008 3.27784C5.85462 3.10688 5.39746 3.06215 4.95641 3.14931C4.51536 3.23647 4.11024 3.45161 3.79226 3.76751C3.47429 4.08341 3.25774 4.48589 3.17001 4.92406C3.08229 5.36223 3.12731 5.8164 3.2994 6.22914C3.47149 6.64189 3.76292 6.99466 4.13682 7.24287C4.51072 7.49107 4.95031 7.62354 5.4 7.62354C5.69861 7.62362 5.99431 7.56525 6.2702 7.45176C6.54609 7.33827 6.79677 7.17189 7.00792 6.96212C7.21906 6.75235 7.38654 6.50331 7.50077 6.22921C7.615 5.95512 7.67376 5.66136 7.67367 5.3647ZM9.37893 3.67058C9.37893 3.55889 9.34559 3.44972 9.28312 3.35686C9.22066 3.26399 9.13189 3.19162 9.02802 3.14888C8.92416 3.10615 8.80987 3.09497 8.69961 3.11676C8.58935 3.13855 8.48808 3.19234 8.40858 3.27131C8.32909 3.35029 8.27496 3.45091 8.25303 3.56045C8.2311 3.66999 8.24236 3.78353 8.28538 3.88671C8.3284 3.98989 8.40126 4.07809 8.49473 4.14014C8.58821 4.20218 8.6981 4.2353 8.81052 4.2353C8.96113 4.23483 9.10544 4.17519 9.21194 4.06938C9.31843 3.96357 9.37847 3.8202 9.37893 3.67058Z" fill="var(--fill-0, white)"/>
</svg>
