<svg preserveAspectRatio="none" width="100%" height="100%" overflow="visible" style="display: block;" viewBox="0 0 12.8 12.7997" fill="none" xmlns="http://www.w3.org/2000/svg">
<g id="Vector">
<path d="M5.2749 3.8748C2.38007 3.8748 2.63278e-05 5.86547 2.63278e-05 8.31244C2.63278e-05 9.29057 0.379426 10.2846 1.0752 11.0551L0.0926762 12.1779C-0.00399867 12.2885 -0.0274486 12.4456 0.0337263 12.5796C0.0945262 12.7136 0.227826 12.7997 0.375026 12.7997H5.6499C7.78727 12.7997 10.5498 10.9592 10.5498 8.31244C10.5498 5.86547 8.16972 3.8748 5.2749 3.8748ZM2.99995 8.99979C2.5865 8.99979 2.24997 8.66324 2.24997 8.24982C2.24997 7.83637 2.58652 7.49984 2.99995 7.49984C3.41337 7.49984 3.74992 7.83639 3.74992 8.24982C3.74995 8.66324 3.4134 8.99979 2.99995 8.99979ZM5.2749 8.99979C4.86145 8.99979 4.52492 8.66324 4.52492 8.24982C4.52492 7.83637 4.86147 7.49984 5.2749 7.49984C5.68832 7.49984 6.02487 7.83639 6.02487 8.24982C6.02487 8.66324 5.68835 8.99979 5.2749 8.99979ZM7.54984 8.99979C7.13639 8.99979 6.79987 8.66324 6.79987 8.24982C6.79987 7.83637 7.13642 7.49984 7.54984 7.49984C7.96327 7.49984 8.29982 7.83639 8.29982 8.24982C8.29982 8.66324 7.96329 8.99979 7.54984 8.99979Z" fill="var(--fill-0, white)"/>
<path d="M12.7093 7.63054L11.8264 6.60042C12.4566 5.88927 12.7997 5.02207 12.7997 4.1249C12.7997 1.85042 10.6128 0 7.92484 0C5.49422 0 3.4292 1.51472 3.06457 3.48625C3.74277 3.2558 4.50335 3.1248 5.27492 3.1248C8.55874 3.1248 11.2567 5.41842 11.2961 8.24979H12.4247C12.7451 8.24982 12.9171 7.87262 12.7093 7.63054Z" fill="var(--fill-0, white)"/>
</g>
</svg>
