<svg preserveAspectRatio="none" width="100%" height="100%" overflow="visible" style="display: block;" viewBox="0 0 15.9996 14.6667" fill="none" xmlns="http://www.w3.org/2000/svg">
<g id="Vector">
<path d="M4.16627 11.6667C3.09894 11.6667 2.14961 10.9833 1.80494 9.966L1.78161 9.88933C1.70027 9.62 1.66627 9.39333 1.66627 9.16667V4.62133L0.0489409 10.02C-0.159059 10.814 0.314941 11.6373 1.11027 11.8567L11.4189 14.6173C11.5476 14.6507 11.6763 14.6667 11.8029 14.6667C12.4669 14.6667 13.0736 14.226 13.2436 13.5767L13.8443 11.6667H4.16627Z" fill="var(--fill-0, white)"/>
<path d="M5.99961 4.66667C6.73494 4.66667 7.33294 4.06867 7.33294 3.33333C7.33294 2.598 6.73494 2 5.99961 2C5.26427 2 4.66627 2.598 4.66627 3.33333C4.66627 4.06867 5.26427 4.66667 5.99961 4.66667Z" fill="var(--fill-0, white)"/>
<path d="M14.3329 0H4.33294C3.41427 0 2.66627 0.748 2.66627 1.66667V9C2.66627 9.91867 3.41427 10.6667 4.33294 10.6667H14.3329C15.2516 10.6667 15.9996 9.91867 15.9996 9V1.66667C15.9996 0.748 15.2516 0 14.3329 0ZM4.33294 1.33333H14.3329C14.5169 1.33333 14.6663 1.48267 14.6663 1.66667V6.39933L12.5603 3.942C12.3369 3.68 12.0136 3.54 11.6663 3.532C11.3209 3.534 10.9969 3.68733 10.7756 3.95267L8.29961 6.92467L7.49294 6.12C7.03694 5.664 6.29494 5.664 5.83961 6.12L3.99961 7.95933V1.66667C3.99961 1.48267 4.14894 1.33333 4.33294 1.33333Z" fill="var(--fill-0, white)"/>
</g>
</svg>
