<svg preserveAspectRatio="none" width="100%" height="100%" overflow="visible" style="display: block;" viewBox="0 0 12 12" fill="none" xmlns="http://www.w3.org/2000/svg">
<path id="Vector" d="M2.89151 0.00489159C3.31262 -0.0179716 3.75363 0.0393045 4.15285 0.176877C4.23987 0.206863 4.32556 0.245541 4.41025 0.281648C4.87508 0.479524 5.2617 0.825399 5.51009 1.26562C5.59929 1.42199 5.67199 1.59018 5.73914 1.75704C5.74399 1.74927 5.74909 1.74162 5.75384 1.73382C5.82764 1.61355 6.03394 1.42408 6.14064 1.32218C6.26764 1.20088 6.39299 1.07923 6.52844 0.967309C7.01844 0.56027 7.59284 0.267622 8.20999 0.110648C8.33319 0.0784154 8.45724 0.062419 8.58309 0.0451078C8.66984 0.033173 8.75854 0.0169603 8.84579 0.0108539C8.92469 0.00533195 9.00584 0.00737464 9.08504 0.00722394C9.17874 0.00704644 9.27439 0.0047392 9.36789 0.0110012C9.44089 0.0158887 9.51479 0.0297623 9.58729 0.0399541C9.96944 0.0936804 10.3264 0.194002 10.6617 0.390397C11.1642 0.684639 11.5177 1.09402 11.7555 1.62355C11.8104 1.74579 11.8648 1.87525 11.8984 2.00516C11.9296 2.12618 11.9607 2.25114 11.9782 2.37483C11.9966 2.50397 11.9997 2.63199 12 2.76225C12.0008 3.15636 11.9531 3.46861 11.8392 3.84616C11.6758 4.3877 11.4338 4.84869 11.1061 5.3055C11.0463 5.38885 10.9878 5.47395 10.9242 5.5544C10.4071 6.20835 9.76064 6.74065 9.08554 7.22269C8.87804 7.37084 8.66299 7.50509 8.45084 7.64604C8.34914 7.71359 8.25054 7.78624 8.15009 7.85569C7.78859 8.10564 7.40114 8.36234 7.17224 8.74924C7.07734 8.90479 7.02019 9.08689 6.99989 9.26714C6.99079 9.34799 6.98084 9.43004 6.98339 9.51144C6.99544 9.89384 7.15319 10.2528 7.16964 10.6364C7.18419 10.9767 7.08749 11.3441 6.85199 11.5983C6.61964 11.8458 6.29819 11.9903 5.95899 11.9997C5.89379 12.0016 5.82814 11.9938 5.76349 11.986C5.49474 11.9533 5.28065 11.8539 5.0847 11.6663C4.94617 11.5336 4.8531 11.3751 4.79684 11.1925C4.69786 10.8712 4.73657 10.546 4.82041 10.2268C4.84948 10.1162 4.88513 10.0072 4.91111 9.89579C4.95578 9.70414 4.98115 9.50514 4.97609 9.30814C4.97099 9.10964 4.92789 8.93084 4.85086 8.74894C4.80875 8.64949 4.76106 8.55134 4.70039 8.46179C4.43257 8.06624 3.97373 7.80089 3.56929 7.56499C3.28275 7.39784 2.99314 7.23344 2.71251 7.05644C2.27087 6.77714 1.85815 6.4544 1.48052 6.09305C0.979904 5.61685 0.53278 4.99105 0.278427 4.34527C0.187807 4.10942 0.117712 3.86619 0.0689249 3.61826C0.0363178 3.45137 0.00584359 3.27244 0.00257003 3.10233C0.000201416 2.97928 -0.00293165 2.85192 0.00562114 2.72917C0.037748 2.19142 0.221987 1.67389 0.536844 1.23699C0.612299 1.13165 0.686704 1.0274 0.777004 0.933964C1.33103 0.356091 2.09153 0.0219364 2.89151 0.00489159Z" fill="var(--fill-0, #FE30D1)"/>
</svg>
